<?xml version="1.0" standalone="no"?>
<!DOCTYPE svg PUBLIC "-//W3C//DTD SVG 20010904//EN"
 "http://www.w3.org/TR/2001/REC-SVG-20010904/DTD/svg10.dtd">
<svg version="1.0" xmlns="http://www.w3.org/2000/svg"
 width="400.000000pt" height="400.000000pt" viewBox="0 0 400.000000 400.000000"
 preserveAspectRatio="xMidYMid meet">
<metadata>
Created by potrace 1.11, written by Peter Selinger 2001-2013
</metadata>
<g transform="translate(0.000000,400.000000) scale(0.100000,-0.100000)"
fill="#000000" stroke="none">
<path d="M290 2005 l0 -1705 1705 0 1705 0 0 1705 0 1705 -1705 0 -1705 0 0
-1705z m3280 1574 c4 -6 5 -3133 1 -3149 0 -3 -710 -5 -1576 -5 -1394 0 -1575
2 -1576 15 -6 64 -3 3136 2 3140 11 8 3143 7 3149 -1z"/>
<path d="M1155 3260 c-25 -27 -26 -29 -21 -141 17 -368 21 -597 20 -1154 0
-566 -2 -701 -20 -1085 -6 -124 -6 -125 20 -149 25 -23 29 -24 201 -24 171 1
177 2 201 24 l25 24 -6 150 c-3 82 -8 200 -11 260 -6 153 -14 755 -9 755 6 0
180 -202 345 -400 85 -102 157 -187 160 -190 3 -3 48 -57 100 -120 154 -188
230 -279 328 -394 l93 -108 221 0 222 1 18 37 c10 21 17 41 16 45 -2 4 -23 29
-48 56 -43 45 -296 331 -419 472 -62 72 -106 122 -136 154 -11 13 -63 72 -115
132 -52 61 -109 126 -126 145 -17 19 -72 80 -120 136 -49 55 -113 127 -141
159 -29 33 -53 63 -53 66 0 20 510 529 806 804 65 61 125 117 134 125 8 8 49
44 90 80 41 36 78 69 82 74 3 5 -3 28 -14 51 -20 41 -22 42 -55 35 -47 -11
-188 -10 -248 1 -55 11 -48 16 -149 -102 -16 -19 -61 -70 -100 -114 -65 -73
-98 -110 -165 -184 -234 -258 -699 -721 -724 -721 -6 0 -1 477 7 640 3 58 8
175 11 260 4 85 9 158 11 161 2 4 -11 20 -30 37 -32 28 -37 29 -83 21 -54 -11
-193 -10 -253 1 -34 6 -42 4 -65 -20z"/>
</g>
</svg>
